<?xml version="1.0" encoding="utf-8"?>
<!-- Generator: Adobe Adobe Illustrator 24.2.0, SVG Export Plug-In . SVG Version: 6.00 Build 0)  -->
<svg version="1.1" id="레이어_1" xmlns="http://www.w3.org/2000/svg" xmlns:xlink="http://www.w3.org/1999/xlink" x="0px"
	 y="0px" width="595.28px" height="841.89px" viewBox="0 0 595.28 841.89" style="enable-background:new 0 0 595.28 841.89;"
	 xml:space="preserve">
<style type="text/css">
	.st0{fill:none;stroke:#000000;stroke-miterlimit:10;}
</style>
<path class="st0" d="M320.03,350.91c-24.34-6.45-49.16-11.08-74.19-13.83c-14.74-1.62-30.41-2.43-43.6,4.33
	c2.93,6.69,11.66,8.01,18.95,8.51c43.82,2.98,87.36,10.19,129.8,21.5c13,3.47,27.61,8.83,32.3,21.44
	c-22.34-3.1-44.69-6.19-67.03-9.29c-3.54-0.49-7.2-0.97-10.65-0.01c-3.41,0.96-6.27,3.24-9.02,5.47
	c-16.53,13.37-33.05,26.74-49.58,40.11c-3.7,2.99-7.55,6.07-12.16,7.26c-3.02,0.78-6.19,0.7-9.31,0.51
	c-8.71-0.54-17.37-1.94-25.8-4.17c-2.71-0.72-5.73-1.8-6.81-4.39c-0.82-1.98-0.23-4.23,0.36-6.29c2.98-10.25,6.02-20.65,11.69-29.68
	c5.68-9.04,14.44-16.69,24.94-18.55c6.57-1.16,13.31-0.01,19.89,1.14c14.31,2.5,28.62,5.01,42.93,7.51
	c0.41-6.02-7.12-8.93-13.06-9.92c-45.74-7.62-90-16.1-136.94-17.3c-9.66-3.89-21.32-3.78-30.99-7.67c-5.85-2.35-12.55-5.76-13.4-12
	c-1.09-8,7.96-13.15,15.36-16.37c16.61-7.22,41.64-20.55,59.7-21.83c23.37-1.65,24.32-1.16,42.79,2.36
	c5.2,0.99,8.96,6.14,11.02,11.01c2.06,4.87,1.26,11.22-2.91,14.47c-2.44,1.9-5.61,2.53-8.66,3.04c-25.48,4.2-51.77,3.46-76.98-2.16
	c-2.09-3.82-0.66-8.81,2.32-11.98c2.98-3.17,7.17-4.87,11.31-6.22c38.9-12.67,81.08-1.5,120.43,9.68
	c19.41,5.51,39.18,11.19,55.92,22.44c-4.14-12.17-20.84-12.82-31.93-19.32c-2.05-1.2-4.18-3.16-3.83-5.51
	c0.17-1.11,0.88-2.06,1.59-2.93c16.76-20.55,49.03-26.38,71.92-12.99c2.81,3.96-0.55,9.26-3.76,12.9
	c-7.62,8.63-15.23,17.25-22.85,25.88c25,5.15,50,10.29,75,15.44c1.54,0.32,3.18,0.63,4.64,0.04c1.77-0.71,2.78-2.54,3.65-4.24
	c7.09-13.9,13.52-28.14,19.26-42.65c-8.11-7.56-21.19-3.43-31.16,1.43c-18.7,9.12-36.81,19.45-54.18,30.9
	c-2.59,1.71-5.52,4.37-4.55,7.32c0.86,2.63,4.19,3.33,6.94,3.65c26.65,3.07,52.77,10.64,76.92,22.3c-4.17-5.02-9.31-9.22-14.68-12
	c4.59-4.61,9.17-9.22,13.76-13.82c2.2-2.21,4.65-4.54,7.74-4.87c1.76-0.19,3.51,0.32,5.21,0.81c5.02,1.46,10.05,2.93,15.51,4.64
	c-0.56,10.67-11.45,17.41-16.93,26.59c-1.23,2.06-2.26,4.35-4.18,5.78c-3.29,2.43-7.87,1.51-11.83,0.48
	c-8.97-2.34-17.94-4.68-26.91-7.01c-0.7-0.18-1.5-0.35-2.11,0.03c-0.49,0.31-0.73,0.89-0.93,1.44c-1.99,5.37-3.61,10.87-4.83,16.46
	c-0.32,1.48-0.62,3.04-0.19,4.5c0.48,1.62,1.79,2.86,3.08,3.95c3.36,2.82,7.06,5.26,11.95,7.71c7.59-6.55,15.09-13.22,22.49-20
	c1.25-1.14,2.55-2.32,4.18-2.78c1.57-0.45,3.24-0.17,4.84,0.12c18.33,3.27,36.51,7.35,54.48,12.22"/>
</svg>

