<svg width="1130" height="1166" viewBox="0 0 1130 1166" fill="none" xmlns="http://www.w3.org/2000/svg">
<g filter="url(#filter0_d_1_9)">
<path d="M7.60782 1009.43C1.53187 1009.43 17.3691 992.677 20.0824 988.939C28.9272 976.752 40.5431 965.338 51.2689 954.856C76.1446 930.546 100.871 905.599 129.012 885.132C153.582 867.263 176.609 845.555 198.068 824.096C222.664 799.5 249.579 777.485 274.141 752.924C284.865 742.2 297.08 732.77 307.332 721.626C317.592 710.474 325.177 698.062 334.397 686.207C353.284 661.924 365.1 635.504 377.39 607.573C392.962 572.181 396.548 538.45 396.548 499.757C396.548 488.182 395.255 476.282 388.528 466.565C385.44 462.105 375.289 455.742 369.482 458.323C361.647 461.806 360.546 487.222 359.458 494.188C356.045 516.031 355.311 538.843 350.436 560.347C344.768 585.354 340.329 610.568 337.962 636.086C335.965 657.604 331.11 679.971 332.504 701.578C333.078 710.478 337.687 719.228 346.427 710.488C361.769 695.146 369.61 674.789 373.826 653.907C378.765 629.446 381.263 604.916 384.964 580.396C386.841 567.961 388.225 553.739 385.521 541.301C383.117 530.245 383.652 517.511 382.625 506.217C381.373 492.439 376.723 481.073 372.49 468.125C367.996 454.38 367.333 439.99 364.025 426.023C361.418 415.016 355.673 403.213 354.557 392.052C351.149 357.966 342.926 323.888 346.872 289.248C349.051 270.118 357.409 254.313 363.579 236.454C369.043 220.636 374.045 203.858 382.514 189.34C389.783 176.878 390.983 161.609 397.661 149.466C403.854 138.206 412.175 127.624 417.71 116.052C431.642 86.9215 448.674 57.7222 448.674 24.6085C448.674 18.3227 447.573 3.00075 438.204 3.00075C427.304 3.00075 424.615 23.7765 424.615 31.0686C424.615 47.0401 426.179 91.7321 453.129 82.749C469.863 77.1708 458.477 39.6503 453.797 28.9523C451.147 22.8956 449.911 17.8077 446.669 12.1339C444.753 8.78087 439.54 3.00075 439.54 3.00075C439.54 3.00075 459.462 1.42044 467.72 6.00802C478.82 12.1748 486.446 23.8082 494.785 33.0734C508.171 47.9472 517.959 71.2027 523.744 90.2115C527.276 101.816 543.942 142.876 526.863 150.914C521.452 153.46 512.269 136.114 510.378 133.316C506.044 126.901 502.656 116.294 504.921 108.366C506.364 103.316 515.762 109.843 516.838 112.265C520.809 121.2 524.632 127.613 524.858 137.771C525.465 165.087 532.059 198.752 519.846 224.536C510.53 244.201 500.275 229.081 491.221 216.405C487.491 211.184 478.112 178.277 491.778 193.461C502.709 205.606 518.433 214.595 528.422 227.543C544.925 248.936 563.311 268.139 580.102 289.248C589.923 301.594 601.792 312.697 609.952 326.226C620.755 344.136 633.867 361.691 647.042 377.907C658.917 392.522 669.956 411.534 679.119 428.028C691.475 450.269 702.44 472.522 712.868 495.747C735.494 546.142 749.833 598.291 767.221 650.454C774.412 672.026 771.454 698.061 771.454 720.512C771.454 730.661 771.454 717.21 771.454 714.275C771.454 701.505 771.564 688.729 771.454 675.96C771.013 624.836 753.41 574.641 753.41 523.369C753.41 507.344 767.79 527.533 771.342 533.393C783.697 553.78 794.548 577.573 802.64 599.999C808.66 616.683 812.869 638.29 813.555 656.135C814.038 668.69 816.146 631.033 815.449 618.488C814.528 601.919 807.576 584.402 802.529 568.701C798.958 557.591 793.964 545.697 787.047 536.289C779.205 525.625 773.818 513.231 766.33 502.207C757.182 488.74 750.278 473.756 740.267 460.885C730.8 448.713 721.365 436.865 711.308 425.132C701.821 414.064 686.816 406.206 675.221 397.51C658.172 384.723 622.002 360.319 632.228 334.023C639.147 316.232 659.706 300.732 677.226 309.742C699.361 321.126 721.488 340.233 736.146 360.754C740.277 366.538 727.052 349.819 722.223 344.604C712.685 334.303 698.448 327.151 691.26 315.311C677.131 292.04 703.02 235.6 733.25 252.604C743.818 258.548 752.632 268.868 761.095 277.33C771.055 287.29 779.593 294.243 785.376 307.737C790.708 320.178 788.68 319.847 782.369 309.519C774.601 296.808 761.877 284.979 757.865 270.536C752.108 249.809 746.682 231.212 762.32 212.73C771.049 202.414 793.422 186.703 807.541 187.446C810.914 187.624 818.672 195.089 816.006 193.015C807.064 186.061 796.566 190.856 786.713 194.352C752.807 206.383 732.454 233.046 704.403 254.497C671.454 279.693 639.712 312.694 616.078 346.832C604.457 363.618 621.909 346.761 624.654 341.819C631.662 329.205 644.524 322.911 652.277 311.635C663.954 294.65 680.944 282.508 693.265 266.081C708.135 246.254 732.102 234.818 749.4 217.519C760.219 206.7 779.426 196.93 793.952 191.902C808.488 186.87 816.704 191.917 829.594 198.362C841.56 204.345 843.213 227.897 839.173 240.018C822.422 290.269 770.23 324.349 756.974 375.902C753.118 390.899 751.635 405.912 755.86 421.122C758.837 431.837 768.319 445.703 775.909 453.645C786.42 464.645 799.891 474.158 809.657 485.389C812.257 488.379 830.903 502.789 820.572 498.197C813.564 495.083 803.961 480.167 801.526 473.248C794.172 452.347 784.04 406.046 807.541 390.938C834.34 373.71 847.496 410.41 855.657 429.587C857.713 434.419 860.323 439.602 862.897 444.178C864.659 447.31 872.394 453.2 868.8 453.2C865.593 453.2 854.855 426.93 853.764 424.018C845.873 402.977 848.403 354.855 875.705 346.275C902.776 337.767 924.127 369.639 933.957 390.938C936.134 395.654 944.489 407.435 938.635 395.727C930.791 380.039 921.817 368.382 921.817 349.839C921.817 324.23 944 308.502 967.928 305.844C988.032 303.61 994.412 312.529 1002.01 328.677C1005.99 337.14 1006.02 348.683 1006.02 357.858C1006.02 364.87 1008.03 343.93 1008.03 336.919C1008.03 311.512 991.355 302.086 967.037 309.742C913.445 326.613 866.319 355.332 818.902 384.589C800.72 395.808 785.274 408.917 769.337 423.016C749.382 440.669 773.572 423.34 781.032 417.558C791.475 409.465 800.557 400.061 811.773 392.943C823.041 385.792 833.989 379.341 844.296 370.778C862.894 355.328 884.971 348.245 905.333 336.028C926.249 323.478 949.681 313.969 973.052 307.737C988.866 303.52 1000.8 302.941 1006.47 319.321C1015.46 345.299 988.398 362.302 972.049 377.907C932.173 415.971 886.216 448.495 840.064 478.594C831.973 483.871 824.209 491.162 817.565 498.197C815.836 500.028 811.55 509.821 811.55 505.214C811.55 497.21 813.487 512.622 813.667 514.236C815.007 526.301 822.306 538.56 829.594 547.873C837.467 557.932 846.581 566.823 854.543 576.832C855.651 578.225 864.185 591.295 865.458 590.977C867.094 590.568 862.922 586.608 862.563 586.299C857.202 581.704 854.323 569.473 851.647 563.021C847.234 552.376 847.08 540.655 844.63 529.495C841.738 516.317 837.692 488.638 852.538 480.154C872.482 468.758 908.659 493.792 913.797 514.347C916.369 524.633 921.485 528.486 914.689 516.13C906.804 501.794 897.759 490.313 897.759 473.025C897.759 445.516 924.225 410.56 954.785 419.117C972.601 424.106 1002.72 475.492 990.427 461.665C972.778 441.81 962.235 417.166 969.042 389.936C972.198 377.311 980.214 362.742 992.209 356.744C1002.4 351.649 1015.88 340.208 1028.52 344.27C1042.82 348.867 1058.15 371.804 1058.15 386.928C1058.15 394.483 1052.99 400.61 1048.01 405.974C1034.53 420.488 1020.77 434.48 1008.03 449.636C996.697 463.107 980.613 472.619 968.819 485.723C954.739 501.367 939.625 516.188 925.604 531.834C918.421 539.85 913.428 549.726 905.667 557.229C899.956 562.749 893.658 567.328 889.739 574.381C883.97 584.766 875.555 592.257 870.805 603.34C870.039 605.128 872.769 602.498 873.701 602.449C880.282 602.103 887.028 602.436 893.526 603.452C911.81 606.308 926.877 618.416 938.969 632.076C951.226 645.922 965.478 665.058 965.923 684.202C966.062 690.165 965.687 684.983 964.921 682.532C962.709 675.454 959.952 669.222 956.011 662.817C945.218 645.279 936.573 627.52 941.086 606.459C944.522 590.423 962.265 572.608 979.066 583.96C988.984 590.661 1001.76 602.846 1007.13 613.587C1014.54 628.395 1005.25 610.201 1001.9 605.345C991.82 590.731 980.46 569.896 992.098 552.44C1000.25 540.207 1007.11 526.944 1021.61 521.142C1035.29 515.67 1045.75 518.235 1057.26 526.265C1063.08 530.331 1067.15 535.772 1071.29 541.413C1072.8 543.477 1076.71 552.992 1074.19 547.316C1068.3 534.077 1056.41 525.721 1053.25 510.338C1049.65 492.852 1054.09 476.543 1064.16 462.11C1072.89 449.609 1096.69 428.674 1113.28 436.047C1118.6 438.41 1127.93 463.058 1116.29 446.517C1096.3 418.113 1051.08 475.19 1037.65 488.619C1017.77 508.505 997.808 529.082 979.178 550.101C963.413 567.886 950.138 586.132 929.391 598.44C920.29 603.838 910.242 610.105 899.318 610.469C895.731 610.588 878.161 608.464 882.722 608.464C893.003 608.464 901.915 611.954 912.684 609.355C927.587 605.758 940.291 597.818 950.33 586.41C970.843 563.1 998.249 542.996 1015.93 517.355C1031.34 495.018 1047.91 471.172 1070.18 455.093C1081.33 447.039 1100.4 426.175 1114.73 440.502C1133.98 459.752 1115.09 500.626 1106.26 520.251C1095.22 544.779 1082.96 566.75 1065.94 587.636C1049.55 607.752 1032.7 627.563 1018.72 649.452C1006.26 668.953 990.609 685.903 977.953 705.142C968.33 719.768 960.901 736.195 946.989 747.578C940.357 753.004 937.496 748.329 934.848 741.563C928.933 726.447 919.253 713.447 907.337 702.246C891.638 687.488 871.126 679.632 866.127 656.135C861.346 633.664 882.832 653.682 888.737 659.587C901.337 672.187 913.794 684.64 921.817 700.687C929.153 715.36 941.774 730.754 943.425 747.466C945.681 770.309 926.713 791.779 912.684 807.612C893.286 829.503 869.554 853.063 845.856 870.096C815.461 891.942 785.184 904.458 754.524 874.217C734.498 854.465 714.426 831.978 698.388 808.948C694.491 803.352 674.511 771.236 693.487 775.98C715.575 781.501 730.231 799.585 747.061 813.738C764.797 828.652 783.727 841.843 801.526 856.619C811.377 864.797 818.764 873.979 821.129 886.692C823.228 897.973 811.757 905.423 803.42 911.195C785.897 923.327 765.904 931.38 748.398 943.384C724.036 960.089 702.731 979.719 680.122 998.517C667.831 1008.74 657.945 1020.7 644.369 1029.37C636.213 1034.58 627.392 1040.51 621.09 1047.97C610.623 1060.37 601.823 1073.8 592.02 1086.62C583.388 1097.91 553.01 1143.84 564.955 1155.79" stroke="black" stroke-width="4" stroke-linecap="round" shape-rendering="crispEdges"/>
</g>
<defs>
<filter id="filter0_d_1_9" x="0.231201" y="0.737793" width="1128.84" height="1165.05" filterUnits="userSpaceOnUse" color-interpolation-filters="sRGB">
<feFlood flood-opacity="0" result="BackgroundImageFix"/>
<feColorMatrix in="SourceAlpha" type="matrix" values="0 0 0 0 0 0 0 0 0 0 0 0 0 0 0 0 0 0 127 0" result="hardAlpha"/>
<feOffset dy="4"/>
<feGaussianBlur stdDeviation="2"/>
<feComposite in2="hardAlpha" operator="out"/>
<feColorMatrix type="matrix" values="0 0 0 0 0 0 0 0 0 0 0 0 0 0 0 0 0 0 0.25 0"/>
<feBlend mode="normal" in2="BackgroundImageFix" result="effect1_dropShadow_1_9"/>
<feBlend mode="normal" in="SourceGraphic" in2="effect1_dropShadow_1_9" result="shape"/>
</filter>
</defs>
</svg>
